<svg width="106" height="20" viewBox="0 0 106 20" fill="none" xmlns="http://www.w3.org/2000/svg">
<path d="M82.8041 17.2743C82.2467 17.2743 81.7407 17.135 81.2861 16.8563C80.8314 16.5776 80.4647 16.211 80.1861 15.7563C79.9074 15.3016 79.7681 14.7956 79.7681 14.2383V7.55028C79.7681 6.99295 79.9074 6.48695 80.1861 6.03228C80.4647 5.57762 80.8314 5.21095 81.2861 4.93228C81.7407 4.65362 82.2467 4.51428 82.8041 4.51428H89.6901C90.2474 4.51428 90.7534 4.65362 91.2081 4.93228C91.6774 5.21095 92.0441 5.57762 92.3081 6.03228C92.5867 6.48695 92.7261 6.99295 92.7261 7.55028V12.3463H82.6501V14.1283C82.6501 14.2016 82.6721 14.2676 82.7161 14.3263C82.7747 14.3703 82.8407 14.3923 82.9141 14.3923H92.7261V17.2743H82.8041ZM82.6501 9.75028H89.8441V7.66028C89.8441 7.58695 89.8147 7.52828 89.7561 7.48428C89.7121 7.42562 89.6534 7.39628 89.5801 7.39628H82.9141C82.8407 7.39628 82.7747 7.42562 82.7161 7.48428C82.6721 7.52828 82.6501 7.58695 82.6501 7.66028V9.75028Z" fill="url(#paint0_linear_103_1219)"/>
<path d="M68.5952 17.4973L68.6803 17.6543H68.8589H72.0381H72.211L72.2977 17.5046L81.4717 1.66464L81.7325 1.21428H81.2121H77.8461H77.6712L77.585 1.36646L70.5076 13.8654L70.507 13.8665L68.8658 16.7377L67.8452 14.8559L69.7576 11.6537L69.8486 11.5014L69.759 11.3483L63.915 1.36275L63.8281 1.21428H63.6561H60.2681H59.7641L60.0044 1.65731L67.1549 14.8417L67.2363 14.9918L68.5952 17.4973Z" fill="#D10ED1" stroke="#D10ED1" stroke-width="0.6"/>
<path d="M48.6883 17.5143C48.131 17.5143 47.6177 17.3749 47.1483 17.0963C46.6937 16.8176 46.327 16.4509 46.0483 15.9963C45.7843 15.5416 45.6523 15.0356 45.6523 14.4783V9.68227H55.7283V7.90027C55.7283 7.82694 55.699 7.76827 55.6403 7.72427C55.5963 7.66561 55.5377 7.63627 55.4643 7.63627H45.6523V4.75427H55.5743C56.1317 4.75427 56.6377 4.89361 57.0923 5.17227C57.5617 5.45094 57.9283 5.81761 58.1923 6.27227C58.471 6.72694 58.6103 7.23294 58.6103 7.79027V17.5143H48.6883ZM48.7983 14.6323H55.7283V12.2783H48.5343V14.3683C48.5343 14.4416 48.5563 14.5076 48.6003 14.5663C48.659 14.6103 48.725 14.6323 48.7983 14.6323Z" fill="white"/>
<path d="M38.6127 17.5143C38.0553 17.5143 37.5493 17.3749 37.0947 17.0963C36.64 16.8176 36.2733 16.4509 35.9947 15.9963C35.716 15.5416 35.5767 15.0356 35.5767 14.4783V0.838257H38.4587V4.75426H43.4307V7.63626H38.4587V14.3683C38.4587 14.4416 38.4807 14.5076 38.5247 14.5663C38.5833 14.6103 38.6493 14.6323 38.7227 14.6323H43.4307V17.5143H38.6127Z" fill="white"/>
<path d="M23.3363 17.5143C22.779 17.5143 22.273 17.3749 21.8183 17.0963C21.3636 16.8176 20.997 16.4509 20.7183 15.9963C20.4396 15.5416 20.3003 15.0356 20.3003 14.4783V7.79027C20.3003 7.23294 20.4396 6.72694 20.7183 6.27227C20.997 5.81761 21.3636 5.45094 21.8183 5.17227C22.273 4.89361 22.779 4.75427 23.3363 4.75427H30.2223C30.7796 4.75427 31.2856 4.89361 31.7403 5.17227C32.2096 5.45094 32.5763 5.81761 32.8403 6.27227C33.119 6.72694 33.2583 7.23294 33.2583 7.79027V12.5863H23.1823V14.3683C23.1823 14.4416 23.2043 14.5076 23.2483 14.5663C23.307 14.6103 23.373 14.6323 23.4463 14.6323H33.2583V17.5143H23.3363ZM23.1823 9.99027H30.3763V7.90027C30.3763 7.82694 30.347 7.76827 30.2883 7.72427C30.2443 7.66561 30.1856 7.63627 30.1123 7.63627H23.4463C23.373 7.63627 23.307 7.66561 23.2483 7.72427C23.2043 7.76827 23.1823 7.82694 23.1823 7.90027V9.99027Z" fill="white"/>
<path d="M0 17.5142V1.67419H3.19L8.932 8.51619L14.652 1.67419H17.864V17.5142H14.938V5.89819L8.932 13.0482L2.904 5.9202V17.5142H0Z" fill="white"/>
<path d="M89.7026 16.6344L89.6584 16.9733L90.0001 16.9733L93.5001 16.9733L93.6126 16.9733L93.6973 16.8993L97.1555 13.8814L99.562 18.3556L99.6293 18.4809L99.7689 18.508L102.814 19.0999L103.108 19.1571L103.166 18.8626L103.313 18.1068L103.333 18.0016L103.282 17.9072L99.8926 11.6188L105.346 7.27025L105.432 7.20138L105.453 7.09294L105.6 6.33708L105.658 6.0426L105.363 5.98535L102.297 5.38927L102.16 5.36275L102.052 5.44965L98.1865 8.54714L95.7631 4.22726L95.6951 4.10607L95.5587 4.07955L92.4921 3.48347L92.1976 3.42622L92.1403 3.72071L91.9934 4.47656L91.9723 4.58501L92.0266 4.68122L95.4539 10.756L89.9555 15.3168L89.8648 15.392L89.8495 15.5088L89.7026 16.6344Z" fill="white" stroke="white" stroke-width="0.6"/>
<defs>
<linearGradient id="paint0_linear_103_1219" x1="92.0001" y1="3.49988" x2="89.5001" y2="16.9999" gradientUnits="userSpaceOnUse">
<stop stop-color="white"/>
<stop offset="1" stop-color="white"/>
</linearGradient>
</defs>
</svg>
