<svg width="106" height="19" viewBox="0 0 106 19" fill="none" xmlns="http://www.w3.org/2000/svg">
<path d="M82.804 16.436C82.2467 16.436 81.7407 16.2967 81.286 16.018C80.8313 15.7394 80.4647 15.3727 80.186 14.918C79.9073 14.4634 79.768 13.9574 79.768 13.4V6.71203C79.768 6.15469 79.9073 5.64869 80.186 5.19403C80.4647 4.73936 80.8313 4.37269 81.286 4.09403C81.7407 3.81536 82.2467 3.67603 82.804 3.67603H89.69C90.2473 3.67603 90.7533 3.81536 91.208 4.09403C91.6773 4.37269 92.044 4.73936 92.308 5.19403C92.5867 5.64869 92.726 6.15469 92.726 6.71203V11.508H82.65V13.29C82.65 13.3634 82.672 13.4294 82.716 13.488C82.7747 13.532 82.8407 13.554 82.914 13.554H92.726V16.436H82.804ZM82.65 8.91203H89.844V6.82203C89.844 6.74869 89.8147 6.69003 89.756 6.64603C89.712 6.58736 89.6533 6.55803 89.58 6.55803H82.914C82.8407 6.55803 82.7747 6.58736 82.716 6.64603C82.672 6.69003 82.65 6.74869 82.65 6.82203V8.91203Z" fill="#2563EB"/>
<path d="M68.5951 16.659L68.6803 16.816H68.8589H72.038H72.2109L72.2976 16.6664L81.4716 0.826379L81.7324 0.376025H81.212H77.846H77.6711L77.5849 0.528206L70.5076 13.0271L70.507 13.0282L68.8657 15.8995L67.8452 14.0177L69.7576 10.8154L69.8485 10.6632L69.7589 10.5101L63.9149 0.524495L63.828 0.376025H63.656H60.268H59.764L60.0043 0.81905L67.1548 14.0034L67.2363 14.1536L68.5951 16.659Z" fill="#D10ED1" stroke="#D10ED1" stroke-width="0.6"/>
<path d="M48.6882 16.676C48.1309 16.676 47.6176 16.5367 47.1482 16.258C46.6936 15.9794 46.3269 15.6127 46.0482 15.158C45.7842 14.7034 45.6522 14.1974 45.6522 13.64V8.84402H55.7282V7.06202C55.7282 6.98868 55.6989 6.93002 55.6402 6.88602C55.5962 6.82735 55.5376 6.79802 55.4642 6.79802H45.6522V3.91602H55.5742C56.1316 3.91602 56.6376 4.05535 57.0922 4.33402C57.5616 4.61268 57.9282 4.97935 58.1922 5.43402C58.4709 5.88868 58.6102 6.39468 58.6102 6.95202V16.676H48.6882ZM48.7982 13.794H55.7282V11.44H48.5342V13.53C48.5342 13.6033 48.5562 13.6693 48.6002 13.728C48.6589 13.772 48.7249 13.794 48.7982 13.794Z" fill="#2563EB"/>
<path d="M38.6126 16.676C38.0553 16.676 37.5493 16.5367 37.0946 16.258C36.6399 15.9793 36.2733 15.6127 35.9946 15.158C35.7159 14.7033 35.5766 14.1973 35.5766 13.64V0H38.4586V3.916H43.4306V6.798H38.4586V13.53C38.4586 13.6033 38.4806 13.6693 38.5246 13.728C38.5833 13.772 38.6493 13.794 38.7226 13.794H43.4306V16.676H38.6126Z" fill="#2563EB"/>
<path d="M23.3362 16.676C22.7788 16.676 22.2728 16.5367 21.8182 16.258C21.3635 15.9794 20.9968 15.6127 20.7182 15.158C20.4395 14.7034 20.3002 14.1974 20.3002 13.64V6.95202C20.3002 6.39468 20.4395 5.88868 20.7182 5.43402C20.9968 4.97935 21.3635 4.61268 21.8182 4.33402C22.2728 4.05535 22.7788 3.91602 23.3362 3.91602H30.2222C30.7795 3.91602 31.2855 4.05535 31.7402 4.33402C32.2095 4.61268 32.5762 4.97935 32.8402 5.43402C33.1188 5.88868 33.2582 6.39468 33.2582 6.95202V11.748H23.1822V13.53C23.1822 13.6033 23.2042 13.6693 23.2482 13.728C23.3068 13.772 23.3728 13.794 23.4462 13.794H33.2582V16.676H23.3362ZM23.1822 9.15202H30.3762V7.06202C30.3762 6.98868 30.3468 6.93002 30.2882 6.88602C30.2442 6.82735 30.1855 6.79802 30.1122 6.79802H23.4462C23.3728 6.79802 23.3068 6.82735 23.2482 6.88602C23.2042 6.93002 23.1822 6.98868 23.1822 7.06202V9.15202Z" fill="#2563EB"/>
<path d="M0 16.6759V0.835938H3.19L8.932 7.67794L14.652 0.835938H17.864V16.6759H14.938V5.05994L8.932 12.2099L2.904 5.08194V16.6759H0Z" fill="#2563EB"/>
<path d="M89.7025 15.7962L89.6583 16.135L90 16.135L93.5 16.135L93.6125 16.135L93.6972 16.061L97.1554 13.0431L99.5619 17.5174L99.6292 17.6426L99.7688 17.6697L102.814 18.2616L103.108 18.3189L103.166 18.0244L103.312 17.2685L103.333 17.1633L103.282 17.069L99.8925 10.7805L105.346 6.432L105.432 6.36312L105.453 6.25468L105.6 5.49883L105.658 5.20434L105.363 5.1471L102.296 4.55101L102.16 4.52449L102.052 4.61139L98.1864 7.70889L95.7629 3.38901L95.6949 3.26781L95.5585 3.2413L92.4919 2.64521L92.1974 2.58797L92.1402 2.88245L91.9933 3.63831L91.9722 3.74675L92.0265 3.84296L95.4538 9.91774L89.9554 14.4785L89.8647 14.5537L89.8494 14.6706L89.7025 15.7962Z" fill="#2563EB" stroke="#2563EB" stroke-width="0.6"/>
</svg>
